<svg width="390" height="390" viewBox="0 0 390 390" fill="none" xmlns="http://www.w3.org/2000/svg">
<g clip-path="url(#clip0_697_4980)">
<rect width="390" height="390" fill="#F8F6F8"/>
<path d="M183.052 187.13L273.866 253.843" stroke="#F3F4F8" stroke-width="40.5118"/>
<path d="M52.0642 237.19L-26.0053 295.166L-57.4863 316.033" stroke="#F8F6F8" stroke-width="40.5118"/>
<path d="M51.8954 237.705L-45.0796 312.538" stroke="white" stroke-width="13.5039"/>
<path d="M-27.0178 471.457L215.8 464.467L242.47 430.854L253.864 356.637L315.813 31.9121" stroke="#F3F4F8" stroke-width="40.5118"/>
<path d="M367.212 -167.404V364.86L433.55 322.098" stroke="white" stroke-width="6.75196"/>
<path d="M100.594 -202.354L-27.0178 128.23L72.9956 264.912M245.339 500.445L109.161 314.337M369.069 365.888L109.203 536.423M109.161 314.337L72.9956 264.912M109.161 314.337L194.383 167.317M279.606 20.2967L194.383 167.317M72.9956 264.912L202.464 -9.82183M83.4611 88.7571L194.383 167.317" stroke="white" stroke-width="6.75196"/>
<path d="M111.988 -48.061L82.4906 93.9996M52.2334 239.041L82.4906 93.9996M15.8572 26.1559L82.4906 93.9996" stroke="white" stroke-width="13.5039"/>
<path d="M240.528 449.459L313.871 31.9121" stroke="white" stroke-width="13.5039"/>
<path d="M-3.6394 285.401L43.9197 378.326M91.4788 471.251L43.9197 378.326M43.9197 378.326L137.899 357.254" stroke="white" stroke-width="6.75196"/>
<path d="M183.896 190.728L275.048 250.657" stroke="white" stroke-width="13.5039"/>
<path d="M299.524 -165.862L312.859 42.1917" stroke="white" stroke-width="13.5039"/>
<path d="M232.004 -211.297L212.002 -11.878L-39.4246 -104.598L369.069 46.0975" stroke="white" stroke-width="13.5039"/>
<circle cx="186" cy="191" r="119" fill="#C5593A" fill-opacity="0.1"/>
<circle cx="184" cy="191" r="14" fill="#C5593A" stroke="white" stroke-width="4"/>
<path d="M184 167C184 155.954 192.954 147 204 147H251C262.046 147 271 155.954 271 167C271 178.046 262.046 187 251 187H184V167Z" fill="white"/>
<rect x="192" y="155" width="24" height="24" rx="12" fill="#C5593A"/>
<path d="M225.527 173V161.022H227.021V171.655H232.799V173H225.527ZM237.861 173.158C235.313 173.158 233.736 171.398 233.736 168.534V168.518C233.736 165.646 235.313 163.894 237.861 163.894C240.409 163.894 241.987 165.646 241.987 168.518V168.534C241.987 171.398 240.409 173.158 237.861 173.158ZM237.861 171.879C239.554 171.879 240.509 170.643 240.509 168.534V168.518C240.509 166.401 239.554 165.172 237.861 165.172C236.168 165.172 235.213 166.401 235.213 168.518V168.534C235.213 170.643 236.168 171.879 237.861 171.879ZM247.505 176.154C245.347 176.154 243.969 175.183 243.745 173.714L243.762 173.706H245.256L245.264 173.714C245.422 174.395 246.219 174.876 247.505 174.876C249.107 174.876 250.062 174.121 250.062 172.801V170.991H249.929C249.365 171.979 248.352 172.535 247.123 172.535C244.808 172.535 243.372 170.742 243.372 168.235V168.219C243.372 165.712 244.816 163.894 247.157 163.894C248.418 163.894 249.398 164.517 249.946 165.529H250.045V164.052H251.49V172.875C251.49 174.876 249.946 176.154 247.505 176.154ZM247.439 171.257C249.099 171.257 250.095 170.012 250.095 168.235V168.219C250.095 166.442 249.091 165.172 247.439 165.172C245.779 165.172 244.849 166.442 244.849 168.219V168.235C244.849 170.012 245.779 171.257 247.439 171.257ZM257.448 173.158C254.9 173.158 253.323 171.398 253.323 168.534V168.518C253.323 165.646 254.9 163.894 257.448 163.894C259.997 163.894 261.574 165.646 261.574 168.518V168.534C261.574 171.398 259.997 173.158 257.448 173.158ZM257.448 171.879C259.142 171.879 260.096 170.643 260.096 168.534V168.518C260.096 166.401 259.142 165.172 257.448 165.172C255.755 165.172 254.8 166.401 254.8 168.518V168.534C254.8 170.643 255.755 171.879 257.448 171.879Z" fill="#101223"/>
<path d="M263 119C263 107.954 271.954 99 283 99H315C325.493 99 334 107.507 334 118C334 128.493 325.493 137 315 137H263V119Z" fill="white"/>
<path d="M276.794 124.158C275.549 124.158 274.553 123.568 274.005 122.572H273.872V124H272.428V111.499H273.872V116.463H274.005C274.495 115.508 275.565 114.894 276.794 114.894C279.068 114.894 280.546 116.712 280.546 119.518V119.534C280.546 122.323 279.06 124.158 276.794 124.158ZM276.462 122.879C278.097 122.879 279.068 121.618 279.068 119.534V119.518C279.068 117.434 278.097 116.172 276.462 116.172C274.835 116.172 273.839 117.451 273.839 119.518V119.534C273.839 121.601 274.835 122.879 276.462 122.879ZM284.836 124.158C283.134 124.158 281.848 123.128 281.848 121.501V121.485C281.848 119.891 283.027 118.97 285.11 118.845L287.675 118.688V117.874C287.675 116.77 287.003 116.172 285.666 116.172C284.595 116.172 283.89 116.571 283.657 117.268L283.649 117.293H282.205L282.213 117.243C282.446 115.84 283.807 114.894 285.716 114.894C287.899 114.894 289.119 116.015 289.119 117.874V124H287.675V122.68H287.542C286.978 123.635 286.04 124.158 284.836 124.158ZM283.325 121.468C283.325 122.373 284.097 122.904 285.135 122.904C286.604 122.904 287.675 121.941 287.675 120.663V119.85L285.284 119.999C283.923 120.082 283.325 120.563 283.325 121.452V121.468ZM291.351 124V115.052H292.795V116.38H292.928C293.268 115.442 294.107 114.894 295.319 114.894C295.593 114.894 295.9 114.927 296.041 114.952V116.355C295.742 116.305 295.468 116.272 295.153 116.272C293.775 116.272 292.795 117.144 292.795 118.455V124H291.351ZM300.821 124.158C298.264 124.158 296.72 122.365 296.72 119.559V119.551C296.72 116.787 298.297 114.894 300.73 114.894C303.162 114.894 304.639 116.704 304.639 119.376V119.941H298.198C298.239 121.792 299.26 122.871 300.854 122.871C302.066 122.871 302.813 122.298 303.054 121.759L303.087 121.684H304.531L304.515 121.75C304.208 122.962 302.929 124.158 300.821 124.158ZM300.721 116.181C299.393 116.181 298.38 117.085 298.223 118.787H303.17C303.021 117.019 302.041 116.181 300.721 116.181ZM306.472 124V115.052H307.917V116.396H308.05C308.498 115.45 309.336 114.894 310.656 114.894C312.665 114.894 313.785 116.081 313.785 118.206V124H312.341V118.555C312.341 116.944 311.677 116.172 310.249 116.172C308.822 116.172 307.917 117.135 307.917 118.704V124H306.472ZM319.678 127.154C317.52 127.154 316.142 126.183 315.918 124.714L315.934 124.706H317.428L317.437 124.714C317.594 125.395 318.391 125.876 319.678 125.876C321.28 125.876 322.234 125.121 322.234 123.801V121.991H322.102C321.537 122.979 320.524 123.535 319.296 123.535C316.98 123.535 315.544 121.742 315.544 119.235V119.219C315.544 116.712 316.988 114.894 319.329 114.894C320.591 114.894 321.57 115.517 322.118 116.529H322.218V115.052H323.662V123.875C323.662 125.876 322.118 127.154 319.678 127.154ZM319.611 122.257C321.272 122.257 322.268 121.012 322.268 119.235V119.219C322.268 117.442 321.263 116.172 319.611 116.172C317.951 116.172 317.022 117.442 317.022 119.219V119.235C317.022 121.012 317.951 122.257 319.611 122.257Z" fill="#101223"/>
<path d="M57 91C57 80.5066 65.5066 72 76 72H151C162.046 72 171 80.9543 171 92V110H76C65.5066 110 57 101.493 57 91Z" fill="white"/>
<path d="M66.5273 97V85.022H71.1094C73.3091 85.022 74.6538 86.1758 74.6538 88.002V88.0186C74.6538 89.2554 73.7407 90.3843 72.5869 90.5918V90.7246C74.2222 90.9321 75.2598 92.0527 75.2598 93.6299V93.6465C75.2598 95.7466 73.749 97 71.2007 97H66.5273ZM70.7939 86.3418H68.0215V90.1851H70.4121C72.2217 90.1851 73.1431 89.5376 73.1431 88.2759V88.2593C73.1431 87.0474 72.2798 86.3418 70.7939 86.3418ZM70.8354 91.4717H68.0215V95.6802H70.9766C72.7778 95.6802 73.7241 94.9497 73.7241 93.5718V93.5552C73.7241 92.1772 72.7446 91.4717 70.8354 91.4717ZM80.1062 97.1577C78.0725 97.1577 77.0266 95.9624 77.0266 93.8457V88.0518H78.4709V93.4971C78.4709 95.1074 79.052 95.8794 80.4797 95.8794C82.0568 95.8794 82.8952 94.9165 82.8952 93.3477V88.0518H84.3396V97H82.8952V95.6636H82.7624C82.3225 96.6182 81.4177 97.1577 80.1062 97.1577ZM89.0863 97.1577C87.3847 97.1577 86.0981 96.1284 86.0981 94.5015V94.4849C86.0981 92.8911 87.2768 91.9697 89.3603 91.8452L91.9252 91.6875V90.874C91.9252 89.77 91.2528 89.1724 89.9164 89.1724C88.8456 89.1724 88.1401 89.5708 87.9076 90.2681L87.8993 90.293H86.455L86.4633 90.2432C86.6957 88.8403 88.057 87.894 89.9662 87.894C92.1493 87.894 93.3695 89.0146 93.3695 90.874V97H91.9252V95.6802H91.7924C91.2279 96.6348 90.29 97.1577 89.0863 97.1577ZM87.5756 94.4683C87.5756 95.373 88.3476 95.9043 89.3852 95.9043C90.8544 95.9043 91.9252 94.9414 91.9252 93.6631V92.8496L89.5346 92.999C88.1733 93.082 87.5756 93.5635 87.5756 94.4517V94.4683ZM98.7804 97.0664C96.9376 97.0664 96.1656 96.3857 96.1656 94.6758V89.2471H94.7545V88.0518H96.1656V85.7358H97.6598V88.0518H99.6188V89.2471H97.6598V94.3105C97.6598 95.3647 98.025 95.7881 98.9547 95.7881C99.212 95.7881 99.3531 95.7798 99.6188 95.7549V96.9834C99.3365 97.0332 99.0626 97.0664 98.7804 97.0664ZM105.742 97V88.0518H107.187V89.4131H107.319C107.718 88.4502 108.564 87.894 109.735 87.894C110.947 87.894 111.793 88.5332 112.209 89.4629H112.341C112.823 88.5166 113.844 87.894 115.081 87.894C116.907 87.894 117.928 88.9399 117.928 90.8159V97H116.483V91.1479C116.483 89.8281 115.877 89.1724 114.616 89.1724C113.371 89.1724 112.549 90.1104 112.549 91.2476V97H111.105V90.9238C111.105 89.8613 110.374 89.1724 109.245 89.1724C108.075 89.1724 107.187 90.1934 107.187 91.4551V97H105.742ZM123.803 97.1577C121.255 97.1577 119.678 95.3979 119.678 92.5342V92.5176C119.678 89.6455 121.255 87.894 123.803 87.894C126.352 87.894 127.929 89.6455 127.929 92.5176V92.5342C127.929 95.3979 126.352 97.1577 123.803 97.1577ZM123.803 95.8794C125.497 95.8794 126.451 94.6426 126.451 92.5342V92.5176C126.451 90.4009 125.497 89.1724 123.803 89.1724C122.11 89.1724 121.156 90.4009 121.156 92.5176V92.5342C121.156 94.6426 122.11 95.8794 123.803 95.8794ZM129.762 97V88.0518H131.207V89.4131H131.339C131.738 88.4502 132.584 87.894 133.755 87.894C134.967 87.894 135.813 88.5332 136.228 89.4629H136.361C136.843 88.5166 137.864 87.894 139.101 87.894C140.927 87.894 141.948 88.9399 141.948 90.8159V97H140.503V91.1479C140.503 89.8281 139.897 89.1724 138.636 89.1724C137.391 89.1724 136.569 90.1104 136.569 91.2476V97H135.124V90.9238C135.124 89.8613 134.394 89.1724 133.265 89.1724C132.095 89.1724 131.207 90.1934 131.207 91.4551V97H129.762ZM147.799 97.1577C145.242 97.1577 143.698 95.3647 143.698 92.5591V92.5508C143.698 89.7866 145.275 87.894 147.707 87.894C150.139 87.894 151.617 89.7036 151.617 92.3765V92.9409H145.175C145.217 94.792 146.238 95.8711 147.832 95.8711C149.044 95.8711 149.791 95.2983 150.031 94.7588L150.065 94.6841H151.509L151.492 94.7505C151.185 95.9624 149.907 97.1577 147.799 97.1577ZM147.699 89.1807C146.371 89.1807 145.358 90.0854 145.2 91.7871H150.148C149.998 90.019 149.019 89.1807 147.699 89.1807ZM153.45 97V88.0518H154.894V89.3965H155.027C155.475 88.4502 156.314 87.894 157.634 87.894C159.642 87.894 160.763 89.0811 160.763 91.2061V97H159.319V91.5547C159.319 89.9443 158.655 89.1724 157.227 89.1724C155.799 89.1724 154.894 90.1353 154.894 91.7041V97H153.45Z" fill="#101223"/>
<path d="M86 310C86 299.507 94.5066 291 105 291H186V309C186 320.046 177.046 329 166 329H105C94.5066 329 86 320.493 86 310Z" fill="white"/>
<path d="M95.5273 316V304.022H102.799V305.367H97.0215V309.484H102.326V310.812H97.0215V316H95.5273ZM108.342 316.158C105.794 316.158 104.217 314.398 104.217 311.534V311.518C104.217 308.646 105.794 306.894 108.342 306.894C110.891 306.894 112.468 308.646 112.468 311.518V311.534C112.468 314.398 110.891 316.158 108.342 316.158ZM108.342 314.879C110.036 314.879 110.99 313.643 110.99 311.534V311.518C110.99 309.401 110.036 308.172 108.342 308.172C106.649 308.172 105.695 309.401 105.695 311.518V311.534C105.695 313.643 106.649 314.879 108.342 314.879ZM113.172 316L116.235 311.526L113.139 307.052H114.841L116.966 310.38H117.099L119.199 307.052H120.817L117.779 311.468L120.859 316H119.165L117.049 312.622H116.916L114.791 316H113.172ZM125.788 316L121.372 304.022H122.941L126.461 314.066H126.593L130.113 304.022H131.682L127.266 316H125.788ZM136.038 316.158C133.49 316.158 131.913 314.398 131.913 311.534V311.518C131.913 308.646 133.49 306.894 136.038 306.894C138.587 306.894 140.164 308.646 140.164 311.518V311.534C140.164 314.398 138.587 316.158 136.038 316.158ZM136.038 314.879C137.732 314.879 138.686 313.643 138.686 311.534V311.518C138.686 309.401 137.732 308.172 136.038 308.172C134.345 308.172 133.39 309.401 133.39 311.518V311.534C133.39 313.643 134.345 314.879 136.038 314.879ZM142.429 319.138C142.238 319.138 141.989 319.121 141.79 319.088V317.901C141.964 317.934 142.188 317.942 142.387 317.942C143.209 317.942 143.707 317.569 144.031 316.54L144.197 316.008L140.885 307.052H142.429L144.886 314.415H145.019L147.467 307.052H148.986L145.492 316.548C144.753 318.557 144.014 319.138 142.429 319.138ZM152.613 316.158C150.911 316.158 149.624 315.128 149.624 313.501V313.485C149.624 311.891 150.803 310.97 152.886 310.845L155.451 310.688V309.874C155.451 308.77 154.779 308.172 153.443 308.172C152.372 308.172 151.666 308.571 151.434 309.268L151.426 309.293H149.981L149.99 309.243C150.222 307.84 151.583 306.894 153.492 306.894C155.676 306.894 156.896 308.015 156.896 309.874V316H155.451V314.68H155.319C154.754 315.635 153.816 316.158 152.613 316.158ZM151.102 313.468C151.102 314.373 151.874 314.904 152.911 314.904C154.381 314.904 155.451 313.941 155.451 312.663V311.85L153.061 311.999C151.699 312.082 151.102 312.563 151.102 313.452V313.468ZM162.813 319.154C160.655 319.154 159.277 318.183 159.053 316.714L159.069 316.706H160.563L160.572 316.714C160.729 317.395 161.526 317.876 162.813 317.876C164.415 317.876 165.37 317.121 165.37 315.801V313.991H165.237C164.672 314.979 163.66 315.535 162.431 315.535C160.115 315.535 158.679 313.742 158.679 311.235V311.219C158.679 308.712 160.123 306.894 162.464 306.894C163.726 306.894 164.706 307.517 165.253 308.529H165.353V307.052H166.797V315.875C166.797 317.876 165.253 319.154 162.813 319.154ZM162.747 314.257C164.407 314.257 165.403 313.012 165.403 311.235V311.219C165.403 309.442 164.398 308.172 162.747 308.172C161.086 308.172 160.157 309.442 160.157 311.219V311.235C160.157 313.012 161.086 314.257 162.747 314.257ZM172.731 316.158C170.174 316.158 168.631 314.365 168.631 311.559V311.551C168.631 308.787 170.208 306.894 172.64 306.894C175.072 306.894 176.549 308.704 176.549 311.376V311.941H170.108C170.15 313.792 171.171 314.871 172.764 314.871C173.976 314.871 174.723 314.298 174.964 313.759L174.997 313.684H176.442L176.425 313.75C176.118 314.962 174.84 316.158 172.731 316.158ZM172.632 308.181C171.303 308.181 170.291 309.085 170.133 310.787H175.08C174.931 309.019 173.951 308.181 172.632 308.181Z" fill="#101223"/>
</g>
<defs>
<clipPath id="clip0_697_4980">
<rect width="390" height="390" fill="white"/>
</clipPath>
</defs>
</svg>
