<svg width="374" height="539" viewBox="0 0 374 539" fill="none" xmlns="http://www.w3.org/2000/svg">
<rect x="152" y="-4" width="140.075" height="173" fill="white"/>
<rect x="160.473" y="3.74805" width="123.106" height="123.106" fill="#FFE8C6"/>
<rect x="189.366" y="37.6396" width="29.7165" height="86.1515" transform="rotate(-33.5882 189.366 37.6396)" fill="#292D5A"/>
<circle cx="233.94" cy="52.7" r="22.9627" fill="#FF8168"/>
<rect x="182.342" y="80.0928" width="47.1141" height="16.317" fill="#FFA690"/>
<path d="M197.415 87.3182C202.444 87.3182 207.499 87.5173 212.498 86.8746C217.363 86.249 222.006 84.7317 226.744 83.5473C231.599 82.3335 236.671 81.8529 241.285 79.7764C245.595 77.8371 246.263 74.9352 247.644 70.6572C249.312 65.4911 251.048 59.9469 251.094 54.4892C251.117 51.8332 251.843 47.7315 250.848 45.1729C248.383 38.8356 241.003 36.0824 234.926 34.9939C228.151 33.7805 222.448 34.1185 218.808 40.7366C217.581 42.9671 218.92 46.1588 220.237 47.8347C222.408 50.5982 223.065 45.9011 223.145 44.2856C223.317 40.8605 218.863 39.663 216.392 38.0747C212.751 35.734 208.361 33.0714 203.872 34.3285C200.454 35.2854 199.633 38.353 199.633 41.4266C199.633 49.8775 204.843 56.4987 209.836 62.9183C213.033 67.0278 217.065 70.2826 221.469 73.0233C226.099 75.9042 230.177 79.3066 235.345 81.3291C240.171 83.2176 245.121 84.2951 250.01 85.9873C252.144 86.7259 254.995 87.272 256.862 88.2055" stroke="white" stroke-width="0.540299" stroke-linecap="round"/>
<path d="M160.677 142.905H161.756C161.842 143.711 162.481 144.189 163.47 144.189C164.447 144.189 165.076 143.689 165.076 142.911C165.076 142.282 164.662 141.912 163.658 141.665L162.949 141.498C161.52 141.144 160.859 140.445 160.859 139.317C160.859 137.964 161.88 137.088 163.459 137.088C164.968 137.088 166 137.953 166.059 139.264H164.984C164.898 138.506 164.334 138.061 163.47 138.061C162.541 138.061 161.982 138.501 161.982 139.237C161.982 139.871 162.385 140.236 163.346 140.467L164.055 140.644C165.559 141.004 166.198 141.665 166.198 142.835C166.198 144.264 165.14 145.161 163.459 145.161C161.81 145.161 160.752 144.302 160.677 142.905ZM169.55 145.097C168.433 145.097 167.691 144.393 167.691 143.335C167.691 142.293 168.443 141.681 169.808 141.6L171.344 141.52V141.004C171.344 140.333 170.925 139.957 170.173 139.957C169.55 139.957 169.104 140.225 168.964 140.687H167.912C168.019 139.72 168.938 139.065 170.194 139.065C171.607 139.065 172.413 139.774 172.413 141.004V145.005H171.387V144.151H171.285C171.005 144.753 170.377 145.097 169.55 145.097ZM169.883 144.2C170.721 144.2 171.344 143.646 171.344 142.9V142.282L169.953 142.352C169.174 142.395 168.766 142.717 168.766 143.287C168.766 143.851 169.195 144.2 169.883 144.2ZM174.54 145V139.146H175.582V140.166H175.657C175.963 139.441 176.624 139.033 177.499 139.033C178.772 139.033 179.459 139.795 179.459 141.203V145H178.38V141.471C178.38 140.467 177.977 139.994 177.112 139.994C176.215 139.994 175.614 140.623 175.614 141.568V145H174.54ZM182.736 137.545H183.799V139.178H186.114V140.064H183.815V143.228C183.815 143.808 184.218 144.125 184.965 144.125C185.239 144.125 185.953 144.114 186.082 144.098V144.979C185.964 145 185.115 145.021 184.89 145.021C183.391 145.021 182.736 144.484 182.736 143.228V140.064H181.189V139.178H182.736V137.545ZM190.599 145.113C189.02 145.113 188.016 144.103 188.016 142.519V141.632C188.016 140.042 189.02 139.038 190.599 139.038C192.178 139.038 193.183 140.042 193.183 141.632V142.519C193.183 144.103 192.178 145.113 190.599 145.113ZM190.599 139.951C189.665 139.951 189.079 140.623 189.079 141.708V142.443C189.079 143.528 189.665 144.2 190.599 144.2C191.534 144.2 192.119 143.528 192.119 142.443V141.708C192.119 140.623 191.534 139.951 190.599 139.951ZM197.206 142.39V144.173H198.983V145H194.998V144.173H196.158V139.973H194.885V139.146H197.2V140.639H197.351C197.582 139.538 198.264 138.995 199.386 138.995C199.719 138.995 200.036 139.038 200.229 139.119V140.3C199.966 140.204 199.585 140.134 199.263 140.134C197.941 140.134 197.206 140.956 197.206 142.39ZM204.295 137.776C203.817 137.776 203.463 137.443 203.463 136.981C203.463 136.514 203.817 136.181 204.295 136.181C204.779 136.181 205.128 136.514 205.128 136.981C205.128 137.443 204.779 137.776 204.295 137.776ZM206.766 145H201.852V144.13H203.823V140.016H201.895V139.146H204.875V144.13H206.766V145ZM208.539 145V139.146H209.581V140.166H209.656C209.962 139.441 210.623 139.033 211.498 139.033C212.771 139.033 213.458 139.795 213.458 141.203V145H212.379V141.471C212.379 140.467 211.976 139.994 211.111 139.994C210.214 139.994 209.613 140.623 209.613 141.568V145H208.539ZM217.895 137.776C217.417 137.776 217.062 137.443 217.062 136.981C217.062 136.514 217.417 136.181 217.895 136.181C218.378 136.181 218.728 136.514 218.728 136.981C218.728 137.443 218.378 137.776 217.895 137.776ZM220.366 145H215.451V144.13H217.422V140.016H215.494V139.146H218.475V144.13H220.366V145Z" fill="black"/>
<rect x="304" y="128" width="140.075" height="173" fill="white"/>
<rect x="312.473" y="135.748" width="123.106" height="123.106" fill="#FFE8C6"/>
<rect x="321.959" y="176.132" width="30.3297" height="80.2478" transform="rotate(-39.7229 321.959 176.132)" fill="#45B289"/>
<rect x="374.477" y="233.116" width="30.3297" height="69.2175" transform="rotate(-131.753 374.477 233.116)" fill="#53B1C5"/>
<path d="M337.679 180.928C337.679 182.879 339.469 184.321 340.395 185.909C343.179 190.681 347.962 194.544 351.489 198.813C352.791 200.39 353.805 202.081 354.91 203.794C358.858 209.914 364.013 216.925 370.38 220.321C372.775 221.598 377.082 220.774 379.763 220.774C382.425 220.774 381.599 218.392 381.599 216.246C381.599 211.537 379.715 207.02 376.971 203.115C373.609 198.332 370.796 192.15 366.179 188.399C363.776 186.446 360.784 184.816 358.608 182.639C356.484 180.516 354.537 177.261 352.067 175.595C347.894 172.781 339.991 170.27 335.44 173.684C333.531 175.115 331.603 177.116 331.792 179.67C331.903 181.168 333.72 184.551 335.415 184.551" stroke="white" stroke-width="0.551448" stroke-linecap="round"/>
<path d="M412.842 175.042C402.726 175.042 394.867 181.49 386.982 187.217C381.711 191.046 376.679 194.905 372.091 199.493C370.564 201.019 367.379 202.504 367.11 204.926C366.76 208.079 365.418 210.347 367.009 213.529C368.835 217.181 376.045 215.663 378.656 214.435C386.045 210.957 391.941 203.927 397.874 198.587C401.559 195.271 405.725 192.572 409.194 189.104C410.354 187.944 414.902 181.852 412.615 180.023C410.234 178.118 405.441 176.853 402.428 176.853" stroke="white" stroke-width="0.551448" stroke-linecap="round"/>
<path d="M315.4 276.135C316.453 276.135 317.06 275.437 317.06 274.229V269.25H318.177V274.298C318.177 276.092 317.14 277.161 315.4 277.161C313.66 277.161 312.623 276.092 312.623 274.298V269.25H313.74V274.229C313.74 275.437 314.347 276.135 315.4 276.135ZM319.477 274.905H320.556C320.642 275.711 321.281 276.189 322.27 276.189C323.247 276.189 323.875 275.689 323.875 274.911C323.875 274.282 323.462 273.912 322.458 273.665L321.749 273.498C320.32 273.144 319.659 272.445 319.659 271.317C319.659 269.964 320.68 269.088 322.259 269.088C323.768 269.088 324.799 269.953 324.858 271.264H323.784C323.698 270.506 323.134 270.061 322.27 270.061C321.34 270.061 320.782 270.501 320.782 271.237C320.782 271.871 321.185 272.236 322.146 272.467L322.855 272.644C324.359 273.004 324.998 273.665 324.998 274.835C324.998 276.264 323.94 277.161 322.259 277.161C320.61 277.161 319.552 276.302 319.477 274.905ZM330.879 277L330.262 274.862H327.684L327.061 277H325.933L328.376 269.25H329.623L332.066 277H330.879ZM328.957 270.49L327.947 273.955H329.999L328.994 270.49H328.957Z" fill="black"/>
<rect x="304" y="313" width="140.075" height="173" fill="white"/>
<rect x="312.472" y="320.748" width="123.106" height="123.106" fill="#FFE8C6"/>
<circle cx="378.927" cy="401.02" r="22.0504" fill="#FF8168"/>
<circle cx="347.775" cy="371.745" r="22.0504" fill="#292D5A"/>
<circle cx="381.461" cy="356.638" r="15.1069" fill="#53B1C5"/>
<circle cx="377.52" cy="376.436" r="14.3562" fill="#FFCF7D"/>
<path d="M377.749 368.535C375.933 368.535 369.735 367.285 368.589 369.691C367.495 371.989 367.13 374.303 367.433 376.839C368.099 382.411 370.782 386.256 376.978 386.256C380.545 386.256 383.703 385.139 385.838 382.104C387.629 379.559 387.764 375.837 387.764 372.773C387.764 371.267 385.264 369.607 383.912 369.22C381.418 368.508 379.293 366.609 376.593 366.609" stroke="white" stroke-width="0.469157" stroke-linecap="round"/>
<path d="M370.43 365.454C370.43 363.193 370.43 360.931 370.43 358.67C370.43 355.417 372.674 353.178 375.266 351.286C377.498 349.658 381.331 350.43 383.912 350.43C385.424 350.43 390.926 349.503 392.002 350.901C395.685 355.689 393.551 374.95 393.928 368.921C394.078 366.523 398.468 365.072 400.07 364.298C402.781 362.99 405.284 361.517 408.352 361.602C411.38 361.686 413.943 364.926 415.115 367.401C417.231 371.867 417.427 376.863 417.427 381.719C417.427 385.685 417.574 387.53 413.917 389.359C411.622 390.507 409.721 391.77 407.111 391.649C405.385 391.569 402.945 389.312 401.654 388.182C401.112 387.708 399.891 386.33 399.022 386.427C398.682 386.465 398.936 394.609 398.936 395.095C398.936 400.269 397.716 408.599 392.687 411.595C391.265 412.442 389.237 412.647 387.636 412.751C384.24 412.97 380.566 413.095 377.171 412.772C371.537 412.235 366.27 406.686 362.511 402.82C359.512 399.735 359.125 396.405 361.955 393.575C363.003 392.527 364.199 391.716 365.229 390.686C366.316 389.599 367.479 389.723 365.422 389.723C357.393 389.723 348.338 388.826 340.853 385.785C336.842 384.155 334.423 381.036 333.149 376.861C332.357 374.266 331.768 369.296 334.861 367.979C338.65 366.367 342.441 364.659 346.289 363.185C348.87 362.197 351.455 362.372 354.165 362.372C355.92 362.372 357.675 362.372 359.429 362.372C360.978 362.372 362.053 363.415 363.496 363.827C364.804 364.201 367.916 365.435 368.504 366.61" stroke="white" stroke-width="0.469157" stroke-linecap="round"/>
<path d="M317.28 462L316.662 459.862H314.084L313.461 462H312.333L314.777 454.25H316.023L318.467 462H317.28ZM315.357 455.49L314.347 458.955H316.399L315.395 455.49H315.357ZM321.297 462V457.064H319.729V456.178H321.297V455.63C321.297 454.448 321.974 453.927 323.457 453.927C323.736 453.927 324.713 453.949 324.875 453.976V454.808C324.66 454.787 323.747 454.765 323.478 454.765C322.742 454.765 322.355 455.05 322.355 455.592V456.178H324.875V457.064H322.372V462H321.297ZM328.806 459.39V461.173H330.584V462H326.599V461.173H327.759V456.973H326.486V456.146H328.801V457.639H328.951C329.182 456.538 329.864 455.995 330.987 455.995C331.32 455.995 331.637 456.038 331.83 456.119V457.3C331.567 457.204 331.186 457.134 330.863 457.134C329.542 457.134 328.806 457.956 328.806 459.39ZM335.896 454.776C335.418 454.776 335.063 454.443 335.063 453.981C335.063 453.514 335.418 453.181 335.896 453.181C336.379 453.181 336.729 453.514 336.729 453.981C336.729 454.443 336.379 454.776 335.896 454.776ZM338.367 462H333.452V461.13H335.423V457.016H333.495V456.146H336.476V461.13H338.367V462ZM345.102 458.031H344.039C343.937 457.354 343.41 456.951 342.696 456.951C341.745 456.951 341.219 457.617 341.219 458.82V459.314C341.219 460.518 341.745 461.184 342.696 461.184C343.416 461.184 343.931 460.792 344.039 460.131H345.102C344.957 461.377 344.071 462.113 342.707 462.113C341.079 462.113 340.139 461.135 340.139 459.427V458.708C340.139 457 341.079 456.027 342.707 456.027C344.071 456.027 344.957 456.763 345.102 458.031ZM348.749 462.097C347.632 462.097 346.891 461.393 346.891 460.335C346.891 459.293 347.643 458.681 349.007 458.6L350.543 458.52V458.004C350.543 457.333 350.124 456.957 349.372 456.957C348.749 456.957 348.303 457.225 348.164 457.687H347.111C347.218 456.72 348.137 456.065 349.394 456.065C350.806 456.065 351.612 456.774 351.612 458.004V462.005H350.586V461.151H350.484C350.205 461.753 349.576 462.097 348.749 462.097ZM349.082 461.2C349.92 461.2 350.543 460.646 350.543 459.9V459.282L349.152 459.352C348.373 459.395 347.965 459.717 347.965 460.287C347.965 460.851 348.395 461.2 349.082 461.2Z" fill="black"/>
<rect x="152" y="366" width="140.075" height="173" fill="white"/>
<rect x="160.473" y="373.748" width="123.106" height="123.106" fill="#FFE8C6"/>
<path d="M201.078 404.274C201.078 396.854 207.093 390.839 214.513 390.839H246.848C254.268 390.839 260.283 396.854 260.283 404.274V418.874H201.078V404.274Z" fill="#D05B53"/>
<path d="M186.657 431.414C186.657 421.52 194.677 413.5 204.571 413.5H263.329V458.464H186.657V431.414Z" fill="#FFCF7D"/>
<path d="M212.005 409.111C212.005 404.164 216.015 400.154 220.962 400.154H244.967V418.247H212.005V409.111Z" fill="#45B289"/>
<circle cx="248.594" cy="458.509" r="18.4066" fill="#2E377C"/>
<path d="M191.463 448.52C191.463 445.678 191.619 442.797 191.203 439.986C190.896 437.917 190.795 435.715 190.795 433.623C190.795 431.644 190.108 428.174 190.962 426.295C192.236 423.493 193.918 420.958 195.804 418.466C197.232 416.579 197.964 416.463 200.145 416.463C201.674 416.463 203.127 416.129 204.653 416.129C205.207 416.129 206.489 416.882 206.489 416.296C206.489 411.474 204.725 404.823 210.163 402.104C212.049 401.161 214.123 400.684 216.025 399.766C218.159 398.736 220.983 397.753 223.334 397.429C227.929 396.795 232.258 394.5 236.951 394.423C239.034 394.389 241.12 394.423 243.203 394.423C244.617 394.423 246.587 394.063 247.897 394.683C250.16 395.756 251.088 397.805 252.423 399.748C254.114 402.207 255.636 404.338 256.653 407.187C257.963 410.855 258.951 414.715 259.399 418.615C260.07 424.465 260.252 430.162 260.252 436.09C260.252 440.166 259.584 444.183 259.584 448.186" stroke="white" stroke-width="0.44785" stroke-linecap="round"/>
<path d="M208.159 453.529C217.356 453.529 226.363 454.865 235.541 454.865" stroke="white" stroke-width="0.44785" stroke-linecap="round"/>
<path d="M217.089 411.57C217.089 413.197 217.104 408.068 218.121 406.797C219.21 405.436 222.078 404.088 223.926 404.088C225.134 404.088 226.376 403.558 227.537 403.3C229.686 402.823 231.932 402.542 234.116 402.082C235.355 401.821 236.56 401.767 237.842 401.767C239.312 401.767 239.495 402.703 240.565 403.372C241.884 404.196 242.341 407.757 242.643 409.119C242.974 410.606 243.46 410.796 241.597 410.796C239.529 410.796 237.46 410.796 235.391 410.796C231.41 410.796 227.162 410.638 223.338 411.77C222.623 411.982 221.819 411.73 221.088 411.842C220.365 411.953 219.774 412.344 219.024 412.344C218.405 412.344 216.836 412.334 216.573 412.86" stroke="white" stroke-width="0.345991" stroke-linecap="round"/>
<path d="M252.018 445.585C250.124 445.585 248.231 445.585 246.337 445.585C245.335 445.585 243.549 445.289 242.726 446.112C240.209 448.63 237.963 451.468 235.578 454.163C233.825 456.144 233.058 456.767 233.058 459.279C233.058 460.587 233.576 461.224 234.074 462.345C234.68 463.709 235.85 464.967 236.368 466.314C237.142 468.324 238.724 468.865 240.431 469.963C243.502 471.937 247.406 472.273 250.983 471.975C255.121 471.63 259.409 467.315 261.667 464.226C263.8 461.307 263.705 456.646 262.589 453.297C261.834 451.033 259.05 447.465 256.946 446.262C256.162 445.814 255.682 444.908 254.651 444.908C252.193 444.908 249.736 444.908 247.278 444.908" stroke="white" stroke-width="0.44785" stroke-linecap="round"/>
<circle cx="195.39" cy="461.286" r="18.4066" fill="#141736"/>
<path d="M196.492 447.279C194.179 447.279 191.181 446.781 188.968 447.617C186.202 448.662 186.366 451.614 184.68 453.956C183.177 456.043 182.272 457.575 182.272 460.069C182.272 461.966 181.846 464.37 182.761 466.069C186.099 472.268 195.686 474.484 202.21 472.672C206.967 471.35 208.505 467.259 210.374 463.192C211.839 460.002 210.68 455.84 208.342 453.373C207.39 452.368 206.956 451.175 205.634 450.514C204.27 449.832 202.746 449.394 201.307 448.896C200.117 448.484 199.005 448.457 197.809 448.125C196.252 447.693 194.121 448.52 192.768 447.617" stroke="white" stroke-width="0.44785" stroke-linecap="round"/>
<path d="M165.28 515L164.662 512.862H162.084L161.461 515H160.333L162.777 507.25H164.023L166.467 515H165.28ZM163.357 508.49L162.347 511.955H164.399L163.395 508.49H163.357ZM172.66 509.146V515H171.618V513.985H171.542C171.236 514.705 170.576 515.113 169.7 515.113C168.427 515.113 167.74 514.35 167.74 512.943V509.146H168.819V512.68C168.819 513.679 169.222 514.151 170.087 514.151C170.984 514.151 171.585 513.523 171.585 512.578V509.146H172.66ZM174.797 510.762C174.797 509.715 175.673 509.027 177.016 509.027C178.294 509.027 179.132 509.64 179.229 510.655H178.197C178.101 510.177 177.644 509.881 177 509.881C176.312 509.881 175.866 510.204 175.866 510.687C175.866 511.106 176.151 511.337 176.833 511.487L177.682 511.675C178.836 511.933 179.357 512.427 179.357 513.287C179.357 514.398 178.439 515.107 177.01 515.107C175.63 515.107 174.738 514.49 174.642 513.458H175.727C175.845 513.958 176.328 514.243 177.037 514.243C177.773 514.243 178.246 513.915 178.246 513.405C178.246 512.975 177.982 512.755 177.273 512.594L176.398 512.395C175.329 512.153 174.797 511.616 174.797 510.762ZM182.736 507.545H183.799V509.178H186.114V510.064H183.815V513.228C183.815 513.808 184.218 514.125 184.965 514.125C185.239 514.125 185.953 514.114 186.082 514.098V514.979C185.964 515 185.115 515.021 184.89 515.021C183.391 515.021 182.736 514.484 182.736 513.228V510.064H181.189V509.178H182.736V507.545ZM190.406 512.39V514.173H192.184V515H188.198V514.173H189.358V509.973H188.085V509.146H190.4V510.639H190.551C190.782 509.538 191.464 508.995 192.586 508.995C192.919 508.995 193.236 509.038 193.43 509.119V510.3C193.167 510.204 192.785 510.134 192.463 510.134C191.142 510.134 190.406 510.956 190.406 512.39ZM196.749 515.097C195.632 515.097 194.891 514.393 194.891 513.335C194.891 512.293 195.643 511.681 197.007 511.6L198.543 511.52V511.004C198.543 510.333 198.124 509.957 197.372 509.957C196.749 509.957 196.303 510.225 196.164 510.687H195.111C195.218 509.72 196.137 509.065 197.394 509.065C198.806 509.065 199.612 509.774 199.612 511.004V515.005H198.586V514.151H198.484C198.205 514.753 197.576 515.097 196.749 515.097ZM197.082 514.2C197.92 514.2 198.543 513.646 198.543 512.9V512.282L197.152 512.352C196.373 512.395 195.965 512.717 195.965 513.287C195.965 513.851 196.395 514.2 197.082 514.2ZM206.766 515H201.852V514.13H203.812V507.738H201.895V506.863H204.886V514.13H206.766V515ZM211.095 507.776C210.617 507.776 210.263 507.443 210.263 506.981C210.263 506.514 210.617 506.181 211.095 506.181C211.579 506.181 211.928 506.514 211.928 506.981C211.928 507.443 211.579 507.776 211.095 507.776ZM213.566 515H208.651V514.13H210.623V510.016H208.694V509.146H211.675V514.13H213.566V515ZM217.148 515.097C216.031 515.097 215.29 514.393 215.29 513.335C215.29 512.293 216.042 511.681 217.406 511.6L218.942 511.52V511.004C218.942 510.333 218.523 509.957 217.771 509.957C217.148 509.957 216.703 510.225 216.563 510.687H215.51C215.618 509.72 216.536 509.065 217.793 509.065C219.206 509.065 220.011 509.774 220.011 511.004V515.005H218.985V514.151H218.883C218.604 514.753 217.976 515.097 217.148 515.097ZM217.481 514.2C218.319 514.2 218.942 513.646 218.942 512.9V512.282L217.551 512.352C216.772 512.395 216.364 512.717 216.364 513.287C216.364 513.851 216.794 514.2 217.481 514.2Z" fill="black"/>
<rect y="-97" width="140.075" height="173" fill="white"/>
<rect x="8.47302" y="-89.252" width="123.106" height="123.106" fill="#FFE8C6"/>
<path d="M8.98291 44.2495H11.6362C13.1777 44.2495 14.1821 45.2432 14.1821 46.7793C14.1821 48.3101 13.1616 49.3037 11.604 49.3037H10.1055V52H8.98291V44.2495ZM10.1055 45.2056V48.353H11.3623C12.4526 48.353 13.0435 47.7998 13.0435 46.7793C13.0435 45.7534 12.4526 45.2056 11.3623 45.2056H10.1055ZM17.5498 52.0967C16.4326 52.0967 15.6914 51.3931 15.6914 50.335C15.6914 49.293 16.4434 48.6807 17.8076 48.6001L19.3438 48.5195V48.0039C19.3438 47.3325 18.9248 46.9565 18.1729 46.9565C17.5498 46.9565 17.104 47.2251 16.9644 47.687H15.9116C16.019 46.7202 16.9375 46.0649 18.1943 46.0649C19.6069 46.0649 20.4126 46.7739 20.4126 48.0039V52.0054H19.3867V51.1514H19.2847C19.0054 51.7529 18.377 52.0967 17.5498 52.0967ZM17.8828 51.1997C18.7207 51.1997 19.3438 50.6465 19.3438 49.8999V49.2822L17.9526 49.3521C17.1738 49.395 16.7656 49.7173 16.7656 50.2866C16.7656 50.8506 17.1953 51.1997 17.8828 51.1997ZM24.8062 49.3896V51.1729H26.584V52H22.5986V51.1729H23.7588V46.9727H22.4858V46.1455H24.8008V47.6387H24.9512C25.1821 46.5376 25.8643 45.9951 26.9868 45.9951C27.3198 45.9951 27.6367 46.0381 27.8301 46.1187V47.3003C27.5669 47.2036 27.1855 47.1338 26.8633 47.1338C25.542 47.1338 24.8062 47.9556 24.8062 49.3896ZM31.896 44.7759C31.418 44.7759 31.0635 44.4429 31.0635 43.981C31.0635 43.5137 31.418 43.1807 31.896 43.1807C32.3794 43.1807 32.7285 43.5137 32.7285 43.981C32.7285 44.4429 32.3794 44.7759 31.896 44.7759ZM34.3667 52H29.4521V51.1299H31.4233V47.0156H29.4951V46.1455H32.4761V51.1299H34.3667V52ZM36.397 47.7622C36.397 46.7148 37.2725 46.0273 38.6152 46.0273C39.8936 46.0273 40.7314 46.6396 40.8281 47.6548H39.7969C39.7002 47.1768 39.2437 46.8813 38.5991 46.8813C37.9116 46.8813 37.4658 47.2036 37.4658 47.687C37.4658 48.106 37.7505 48.3369 38.4326 48.4873L39.2812 48.6753C40.436 48.9331 40.957 49.4272 40.957 50.2866C40.957 51.3984 40.0386 52.1074 38.6099 52.1074C37.2295 52.1074 36.3379 51.4897 36.2412 50.4585H37.3262C37.4443 50.958 37.9277 51.2427 38.6367 51.2427C39.3726 51.2427 39.8452 50.915 39.8452 50.4048C39.8452 49.9751 39.582 49.7549 38.873 49.5938L37.9976 49.395C36.9287 49.1533 36.397 48.6162 36.397 47.7622Z" fill="black"/>
<rect x="304" y="-57" width="140.075" height="173" fill="white"/>
<rect x="312.473" y="-49.252" width="123.106" height="123.106" fill="#FFE8C6"/>
<rect x="355.705" y="-6.47461" width="45.9108" height="68.3852" rx="8.65746" fill="#FF8168"/>
<rect x="346.436" y="-7.78613" width="28.2461" height="70.7464" rx="14.123" fill="#2E377C"/>
<path d="M351.206 4.9823C351.206 8.61621 351.245 12.2523 351.206 15.8859C351.143 21.8013 350.228 27.702 350.228 33.6359C350.228 38.0087 349.747 42.7138 350.482 47.039C350.841 49.1564 351.679 51.6098 353.815 52.5089C357.085 53.8858 359.892 51.7795 362.364 49.9732C363.855 48.8833 365.864 47.3885 366.783 45.7349C367.165 45.0469 367.085 44.5174 367.254 43.7788C367.868 41.0902 368.049 38.4225 368.956 35.737C369.86 33.0612 370.442 30.9998 370.442 28.2747C370.442 24.9348 369.389 21.314 368.341 18.168C366.779 13.4824 365.688 8.52329 364.247 3.84122C362.949 -0.379414 356.095 -3.64274 352.203 -0.723073C350.36 0.658851 350.228 3.48606 350.228 5.63434" stroke="white" stroke-width="0.437246" stroke-linecap="round"/>
<path d="M353.162 -0.886184C356.873 -0.886184 360.134 -2.30279 363.758 -2.86042C367.407 -3.42172 371.14 -3.32564 374.752 -3.96527C379.609 -4.82526 386.939 -6.72544 391.452 -4.1464C392.328 -3.64546 392.376 -1.75092 393.01 -0.958633C393.31 -0.582502 393.492 0.427597 393.571 0.943156C393.861 2.82677 394.213 4.70871 394.495 6.6123C395.685 14.6477 395.545 22.6511 395.545 30.756C395.545 34.9796 395.219 39.0382 395.219 43.2897C395.219 46.3937 394.567 49.4682 394.567 52.5813C394.567 55.4483 391.727 56.2239 389.423 57.1456C386.298 58.3957 382.604 58.1236 379.262 58.1236C375.725 58.1236 372.853 57.9241 369.464 56.9826C368.228 56.6393 366.918 56.1415 365.714 55.6785C364.721 55.2964 364.183 54.6197 363.269 54.1389C361.52 53.2186 360.021 52.6185 359.357 50.6251" stroke="white" stroke-width="0.437246" stroke-linecap="round"/>
<path d="M315.174 92.1611C313.762 92.1611 312.806 91.2803 312.8 89.9644H313.891C313.917 90.6572 314.428 91.1245 315.158 91.1245C315.985 91.1245 316.453 90.6196 316.453 89.7119V85.2217H313.751V84.2495H317.57V89.7334C317.57 91.2534 316.673 92.1611 315.174 92.1611ZM321.55 92.0967C320.433 92.0967 319.691 91.3931 319.691 90.335C319.691 89.293 320.443 88.6807 321.808 88.6001L323.344 88.5195V88.0039C323.344 87.3325 322.925 86.9565 322.173 86.9565C321.55 86.9565 321.104 87.2251 320.964 87.687H319.912C320.019 86.7202 320.938 86.0649 322.194 86.0649C323.607 86.0649 324.413 86.7739 324.413 88.0039V92.0054H323.387V91.1514H323.285C323.005 91.7529 322.377 92.0967 321.55 92.0967ZM321.883 91.1997C322.721 91.1997 323.344 90.6465 323.344 89.8999V89.2822L321.953 89.3521C321.174 89.395 320.766 89.7173 320.766 90.2866C320.766 90.8506 321.195 91.1997 321.883 91.1997ZM329.456 86.0542C330.804 86.0542 331.664 87.0156 331.664 88.541V89.6099C331.664 91.1353 330.804 92.0967 329.456 92.0967C328.607 92.0967 327.995 91.7261 327.759 91.0708H327.657V93.9658H326.55V86.1455H327.63V87.0747H327.732C328.006 86.4087 328.607 86.0542 329.456 86.0542ZM329.096 87.0103C328.199 87.0103 327.63 87.644 327.63 88.6484V89.5239C327.63 90.5337 328.199 91.1675 329.096 91.1675C329.999 91.1675 330.573 90.5283 330.573 89.5239V88.6484C330.573 87.644 329.999 87.0103 329.096 87.0103ZM335.149 92.0967C334.032 92.0967 333.291 91.3931 333.291 90.335C333.291 89.293 334.043 88.6807 335.407 88.6001L336.943 88.5195V88.0039C336.943 87.3325 336.524 86.9565 335.772 86.9565C335.149 86.9565 334.704 87.2251 334.564 87.687H333.511C333.619 86.7202 334.537 86.0649 335.794 86.0649C337.207 86.0649 338.012 86.7739 338.012 88.0039V92.0054H336.986V91.1514H336.884C336.605 91.7529 335.977 92.0967 335.149 92.0967ZM335.482 91.1997C336.32 91.1997 336.943 90.6465 336.943 89.8999V89.2822L335.552 89.3521C334.773 89.395 334.365 89.7173 334.365 90.2866C334.365 90.8506 334.795 91.1997 335.482 91.1997ZM340.139 92V86.1455H341.181V87.166H341.256C341.562 86.4409 342.223 86.0327 343.099 86.0327C344.372 86.0327 345.059 86.7954 345.059 88.2026V92H343.979V88.4712C343.979 87.4668 343.577 86.9941 342.712 86.9941C341.815 86.9941 341.213 87.6226 341.213 88.5679V92H340.139Z" fill="black"/>
<rect y="88" width="140.075" height="173" fill="white"/>
<rect x="8.47253" y="95.748" width="123.106" height="123.106" fill="#FFE8C6"/>
<path d="M17.5969 171.567C17.5969 163.568 24.0812 157.084 32.08 157.084H107.899C115.897 157.084 122.382 163.568 122.382 171.567V198.795H17.5969V171.567Z" fill="#6CCBAB"/>
<circle cx="68.5733" cy="151.617" r="35.7369" fill="#D05B53"/>
<circle cx="32.7679" cy="171.676" r="12.8537" fill="#292D5A"/>
<circle cx="105.328" cy="170.082" r="12.8537" fill="#292D5A"/>
<path d="M24.032 174.77C24.032 172.813 24.0691 171.249 24.5878 169.365C25.4689 166.166 26.8305 164.523 29.5288 162.603C32.4508 160.522 34.8318 161.157 37.8666 162.325C40.0816 163.177 40.7077 166.307 40.7077 168.377C40.7077 170.506 41.2635 172.593 41.2635 174.77" stroke="white" stroke-width="0.362076" stroke-linecap="round"/>
<rect x="36.7146" y="167.15" width="68.6496" height="14.3382" fill="#FFCF7D"/>
<path d="M97.1269 171.991C97.1269 167.399 96.8956 162.24 101.574 159.901C103.244 159.066 104.928 158.409 106.854 158.373C108.206 158.347 110.578 157.865 111.44 159.206C114.057 163.276 113.525 168.09 113.525 172.825" stroke="white" stroke-width="0.362076" stroke-linecap="round"/>
<path d="M40.9855 175.604C41.0825 178.128 43.4885 179.696 45.2779 181.008C47.3297 182.513 50.3072 183.154 52.7974 183.37C56.3793 183.682 59.95 183.664 63.5594 183.664C65.8213 183.664 68.5774 183.788 70.7238 182.954C72.3695 182.314 74.4629 181.776 76.2206 181.718C79.2696 181.618 82.4048 180.042 85.3304 179.51C87.5379 179.109 89.8818 178.369 92.0161 177.657C94.1526 176.945 97.3961 176.086 98.5783 173.936C99.2566 172.703 99.3922 171.039 97.9607 170.323" stroke="white" stroke-width="0.362076" stroke-linecap="round"/>
<path d="M23.4761 175.603C24.2496 175.797 23.5506 179.451 23.893 180.205C24.2584 181.009 24.5388 182.782 24.5878 183.663C24.6596 184.956 25.5385 186.545 26.1318 187.678C26.9322 189.206 28.9637 189.73 30.2699 190.673C36.0618 194.856 43.3611 195.058 50.1571 195.058C54.7504 195.058 59.2005 193.511 63.7756 193.113C65.9867 192.921 68.213 192.693 70.415 192.418C72.2544 192.188 74.2012 192.55 76.0044 192.14C77.6374 191.769 79.4754 192.016 81.1307 192.001C82.6731 191.987 84.1782 191.723 85.7319 191.723C88.8227 191.723 91.9486 191.395 95.0271 191.183C99.0001 190.909 104.028 191.191 107.688 189.361C115.138 185.636 113.525 176.863 113.525 170.045" stroke="white" stroke-width="0.362076" stroke-linecap="round"/>
<path d="M34.3152 161.152C34.3152 156.916 35.4799 153.14 37.3724 149.355C38.5312 147.038 39.386 144.684 40.9855 142.592C44.5229 137.966 48.3417 133.875 53.276 130.703C59.0895 126.966 65.6943 123.055 72.6229 121.856C75.9834 121.274 80.2834 121.325 83.6628 121.748C87.1175 122.179 90.8389 125.068 92.5411 128.094C97.8322 137.5 102.685 148.546 102.685 159.484" stroke="white" stroke-width="0.362076" stroke-linecap="round"/>
<path d="M41.8193 171.435C48.9761 171.435 56.4274 172.141 63.4977 170.941C69.2678 169.961 75.0314 168.865 80.8219 168.038C84.5635 167.503 88.5804 167.266 92.3404 167.266C93.2419 167.266 97.3064 166.791 97.6828 167.544" stroke="white" stroke-width="0.362076" stroke-linecap="round"/>
<path d="M9.54688 234.137V237H8.57471V229.25H9.78857L11.3623 233.96H11.4375L13.0059 229.25H14.2251V237H13.2529V234.137L13.3442 231.011H13.2637L11.8135 235.179H10.9863L9.53613 231.011H9.45557L9.54688 234.137ZM17.5498 237.097C16.4326 237.097 15.6914 236.393 15.6914 235.335C15.6914 234.293 16.4434 233.681 17.8076 233.6L19.3438 233.52V233.004C19.3438 232.333 18.9248 231.957 18.1729 231.957C17.5498 231.957 17.104 232.225 16.9644 232.687H15.9116C16.019 231.72 16.9375 231.065 18.1943 231.065C19.6069 231.065 20.4126 231.774 20.4126 233.004V237.005H19.3867V236.151H19.2847C19.0054 236.753 18.377 237.097 17.5498 237.097ZM17.8828 236.2C18.7207 236.2 19.3438 235.646 19.3438 234.9V234.282L17.9526 234.352C17.1738 234.395 16.7656 234.717 16.7656 235.287C16.7656 235.851 17.1953 236.2 17.8828 236.2ZM27.5669 237H22.6523V236.13H24.6128V229.738H22.6953V228.863H25.687V236.13H27.5669V237ZM31.3481 237.097C30 237.097 29.1406 236.135 29.1406 234.604V233.541C29.1406 232.01 30 231.049 31.3481 231.049C32.1914 231.049 32.8091 231.419 33.0454 232.075H33.1475V228.863H34.2539V237H33.1743V236.076H33.0723C32.793 236.737 32.1914 237.097 31.3481 237.097ZM31.7026 236.141C32.605 236.141 33.1743 235.507 33.1743 234.502V233.627C33.1743 232.617 32.605 231.983 31.7026 231.983C30.8003 231.983 30.231 232.623 30.231 233.627V234.502C30.231 235.507 30.8003 236.141 31.7026 236.141ZM38.6958 229.776C38.2178 229.776 37.8633 229.443 37.8633 228.981C37.8633 228.514 38.2178 228.181 38.6958 228.181C39.1792 228.181 39.5283 228.514 39.5283 228.981C39.5283 229.443 39.1792 229.776 38.6958 229.776ZM41.1665 237H36.252V236.13H38.2231V232.016H36.2949V231.146H39.2759V236.13H41.1665V237ZM42.6865 231.146H43.8413L45.3721 235.899H45.4473L46.9673 231.146H48.1113L46.0005 237H44.8027L42.6865 231.146ZM53.6865 235.453H54.7178C54.562 236.436 53.5952 237.113 52.333 237.113C50.6895 237.113 49.7495 236.146 49.7495 234.481V233.589C49.7495 232.048 50.7539 231.033 52.2739 231.033C53.8047 231.033 54.7339 232.042 54.7339 233.708V234.341H50.8076V234.604C50.8076 235.593 51.4038 236.227 52.3276 236.227C53.0205 236.227 53.5415 235.931 53.6865 235.453ZM52.2632 231.914C51.3555 231.914 50.8076 232.537 50.8076 233.584H53.6758C53.6758 232.542 53.1494 231.914 52.2632 231.914ZM56.7964 232.762C56.7964 231.715 57.6719 231.027 59.0146 231.027C60.293 231.027 61.1309 231.64 61.2275 232.655H60.1963C60.0996 232.177 59.6431 231.881 58.9985 231.881C58.311 231.881 57.8652 232.204 57.8652 232.687C57.8652 233.106 58.1499 233.337 58.832 233.487L59.6807 233.675C60.8354 233.933 61.3564 234.427 61.3564 235.287C61.3564 236.398 60.438 237.107 59.0093 237.107C57.6289 237.107 56.7373 236.49 56.6406 235.458H57.7256C57.8438 235.958 58.3271 236.243 59.0361 236.243C59.772 236.243 60.2446 235.915 60.2446 235.405C60.2446 234.975 59.9814 234.755 59.2725 234.594L58.397 234.395C57.3281 234.153 56.7964 233.616 56.7964 232.762Z" fill="black"/>
<rect y="273" width="140.075" height="173" fill="white"/>
<rect x="8.47266" y="280.748" width="123.106" height="123.106" fill="#FFE8C6"/>
<path d="M30.2012 306.876C36.6024 302.285 45.5138 303.752 50.1054 310.153L66.5064 333.017L43.3259 349.645L26.9249 326.781C22.3333 320.38 23.8001 311.468 30.2012 306.876Z" fill="#292D5A"/>
<circle cx="76.7882" cy="349.622" r="36.3729" fill="#45B289"/>
<path d="M109.582 306.951C116.123 311.342 117.866 320.204 113.475 326.744L97.792 350.107L74.1064 334.207L89.7895 310.844C94.1802 304.303 103.042 302.561 109.582 306.951Z" fill="#FFA690"/>
<path d="M47.4539 341.344C42.3991 341.344 38.7322 337.48 35.8711 333.609C32.9903 329.712 31.281 324.948 31.281 320.073C31.281 318.047 31.2454 316.932 32.5701 315.288C34.1618 313.312 35.9867 311.392 38.2736 310.248C40.3211 309.225 43.4124 309.419 45.3444 310.6C47.4692 311.899 51.1242 313.902 52.3761 316.03C52.9051 316.929 53.7157 317.548 54.2122 318.491C54.9554 319.903 55.3619 321.398 56.1654 322.788C57.358 324.852 58.285 327.051 59.4859 329.117C60.2516 330.434 61.1657 332.418 61.1657 333.961" stroke="white" stroke-width="0.279362" stroke-linecap="round"/>
<path d="M83.667 331.851C86.6125 327.173 89.5708 322.496 92.5934 317.846C94.7582 314.516 99.031 312.161 102.106 309.701C103.535 308.558 103.866 308.295 105.622 308.295C109.363 308.295 111.311 313.969 111.716 317.006C111.985 319.028 111.794 321.177 111.794 323.218C111.794 324.56 110.51 325.829 109.86 326.929C109.465 327.597 109.079 328.89 108.454 329.39C106.751 330.753 105.629 333.891 104.411 335.719" stroke="white" stroke-width="0.279362" stroke-linecap="round"/>
<path d="M48.5084 342.399C49.1002 342.333 49.7453 341.84 50.2273 341.579C53.0255 340.062 55.6764 338.366 58.3919 336.715C59.2742 336.179 60.437 335.367 61.5171 335.367" stroke="white" stroke-width="0.279362" stroke-linecap="round"/>
<path d="M82.9636 332.906C85.3336 332.906 87.7035 332.906 90.0735 332.906C90.8224 332.906 91.9358 332.695 92.6322 333.082C93.8423 333.754 95.0474 334.292 96.3434 334.859C98.5313 335.817 103.633 336.977 104.762 339.235" stroke="white" stroke-width="0.279362" stroke-linecap="round"/>
<path d="M106.871 338.883C103.522 338.883 100.139 337.827 97.027 336.617C93.0472 335.069 88.935 333.664 84.9168 332.202C80.7721 330.695 76.5289 331.148 72.0839 331.148C68.9313 331.148 66.3897 331.844 63.4701 332.906C60.947 333.823 58.0153 335.478 55.7352 336.929C53.7693 338.18 51.9727 339.618 50.7935 341.715C49.1043 344.718 47.3878 347.984 46.7698 351.383C46.2863 354.043 47.5122 356.169 49.0356 358.2C49.8682 359.31 50.4435 360.608 51.3209 361.736C51.8851 362.461 52.1621 363.475 52.8054 364.119C53.4985 364.812 54.3951 365.318 55.1102 366.033C57.8687 368.791 63.1095 371.125 66.9469 371.658C69.9617 372.077 72.7021 372.52 75.7561 372.107C77.9234 371.814 80.0081 371.038 82.1823 370.877C83.8984 370.75 85.6765 369.671 87.3974 369.49C89.4177 369.277 91.2038 368.636 92.847 367.478C95.3266 365.73 97.3836 364.274 99.3709 362.048C100.311 360.996 104.316 359.117 104.41 357.517C104.486 356.236 105.511 355.111 105.797 353.825C106.091 352.503 106.168 351.149 106.168 349.782C106.168 347.484 106.882 343.779 105.895 341.695C104.727 339.231 103.625 337.656 101.246 336.07" stroke="white" stroke-width="0.279362" stroke-linecap="round"/>
<path d="M11.5718 421.135C12.5386 421.135 13.1509 420.534 13.1724 419.556H14.3003C14.3003 421.125 13.21 422.161 11.5771 422.161C9.72949 422.161 8.6499 420.942 8.6499 418.842V417.408C8.6499 415.308 9.72949 414.088 11.5771 414.088C13.2529 414.088 14.2788 415.104 14.3003 416.806H13.1724C13.1401 415.791 12.4956 415.114 11.5664 415.114C10.4062 415.114 9.79932 415.904 9.79932 417.408V418.842C9.79932 420.346 10.4062 421.135 11.5718 421.135ZM17.5498 422.097C16.4326 422.097 15.6914 421.393 15.6914 420.335C15.6914 419.293 16.4434 418.681 17.8076 418.6L19.3438 418.52V418.004C19.3438 417.333 18.9248 416.957 18.1729 416.957C17.5498 416.957 17.104 417.225 16.9644 417.687H15.9116C16.019 416.72 16.9375 416.065 18.1943 416.065C19.6069 416.065 20.4126 416.774 20.4126 418.004V422.005H19.3867V421.151H19.2847C19.0054 421.753 18.377 422.097 17.5498 422.097ZM17.8828 421.2C18.7207 421.2 19.3438 420.646 19.3438 419.9V419.282L17.9526 419.352C17.1738 419.395 16.7656 419.717 16.7656 420.287C16.7656 420.851 17.1953 421.2 17.8828 421.2ZM22.5396 422V416.146H23.5815V417.166H23.6567C23.9629 416.441 24.6235 416.033 25.499 416.033C26.772 416.033 27.4595 416.795 27.4595 418.203V422H26.3799V418.471C26.3799 417.467 25.9771 416.994 25.1123 416.994C24.2153 416.994 23.6138 417.623 23.6138 418.568V422H22.5396ZM31.1494 422.097C30.0322 422.097 29.291 421.393 29.291 420.335C29.291 419.293 30.043 418.681 31.4072 418.6L32.9434 418.52V418.004C32.9434 417.333 32.5244 416.957 31.7725 416.957C31.1494 416.957 30.7036 417.225 30.564 417.687H29.5112C29.6187 416.72 30.5371 416.065 31.7939 416.065C33.2065 416.065 34.0122 416.774 34.0122 418.004V422.005H32.9863V421.151H32.8843C32.605 421.753 31.9766 422.097 31.1494 422.097ZM31.4824 421.2C32.3203 421.2 32.9434 420.646 32.9434 419.9V419.282L31.5522 419.352C30.7734 419.395 30.3652 419.717 30.3652 420.287C30.3652 420.851 30.7949 421.2 31.4824 421.2ZM38.1479 422.097C36.7998 422.097 35.9404 421.135 35.9404 419.604V418.541C35.9404 417.01 36.7998 416.049 38.1479 416.049C38.9912 416.049 39.6089 416.419 39.8452 417.075H39.9473V413.863H41.0537V422H39.9741V421.076H39.8721C39.5928 421.737 38.9912 422.097 38.1479 422.097ZM38.5024 421.141C39.4048 421.141 39.9741 420.507 39.9741 419.502V418.627C39.9741 417.617 39.4048 416.983 38.5024 416.983C37.6001 416.983 37.0308 417.623 37.0308 418.627V419.502C37.0308 420.507 37.6001 421.141 38.5024 421.141ZM44.749 422.097C43.6318 422.097 42.8906 421.393 42.8906 420.335C42.8906 419.293 43.6426 418.681 45.0068 418.6L46.543 418.52V418.004C46.543 417.333 46.124 416.957 45.3721 416.957C44.749 416.957 44.3032 417.225 44.1636 417.687H43.1108C43.2183 416.72 44.1367 416.065 45.3936 416.065C46.8062 416.065 47.6118 416.774 47.6118 418.004V422.005H46.5859V421.151H46.4839C46.2046 421.753 45.5762 422.097 44.749 422.097ZM45.082 421.2C45.9199 421.2 46.543 420.646 46.543 419.9V419.282L45.1519 419.352C44.373 419.395 43.9648 419.717 43.9648 420.287C43.9648 420.851 44.3945 421.2 45.082 421.2Z" fill="black"/>
<rect x="152" y="181" width="140.075" height="173" fill="white"/>
<rect x="160.473" y="188.748" width="123.106" height="123.106" fill="#FFE8C6"/>
<circle cx="193.184" cy="250.281" r="18.3728" fill="#3290AC"/>
<circle cx="215.729" cy="256.345" r="10.2359" fill="#D05B53"/>
<circle cx="232.52" cy="256.345" r="10.2359" fill="#FFCF7D"/>
<circle cx="255.195" cy="254.609" r="14.0452" fill="#45B289"/>
<path d="M191.348 238.046C190.142 238.046 188.937 238.046 187.731 238.046C186.807 238.046 186.204 239.114 185.785 239.827C182.821 244.865 180.442 249.746 180.442 255.726C180.442 257.897 180.365 260.119 181.636 262.005C182.623 263.47 183.964 264.776 185.601 265.475C187.424 266.253 189.646 266.2 191.596 266.126C194.608 266.013 196.893 263.969 199.059 262.133C202.403 259.298 206.541 255.683 207.614 251.246C208.056 249.42 208.511 246.677 207.669 244.894C207.038 243.559 205.717 243.05 204.511 242.379C201.688 240.806 198.206 240.492 195.148 239.441C193.58 238.902 191.898 238.89 190.356 238.376" stroke="white" stroke-width="0.259137" stroke-linecap="round"/>
<path d="M212.828 249.116C212.693 249.116 212.276 249.045 212.204 249.19C211.509 250.58 211.071 252.302 210.643 253.798C210.037 255.921 210.019 258.122 210.019 260.315C210.019 261.536 210.291 262.414 211.543 262.959C213.363 263.752 215.906 263.784 217.703 262.996C220.904 261.59 225.952 256.293 222.981 252.604C221.479 250.74 218.769 249.77 216.628 248.878C215.247 248.302 214.148 248.29 212.663 248.29" stroke="white" stroke-width="0.259137" stroke-linecap="round"/>
<path d="M229.62 248.126C229.236 248.126 228.847 248.106 228.464 248.126C228.082 248.146 227.773 249.944 227.674 250.219C226.959 252.198 226.266 254.079 226.16 256.213C226.061 258.177 225.776 259.976 227.674 261.014C229.4 261.958 232.027 262.455 233.889 261.657C237.863 259.953 239.475 254.499 238.837 250.476C238.534 248.567 235.191 248.2 233.769 247.887C232.037 247.506 230.393 247.465 228.629 247.465" stroke="white" stroke-width="0.259137" stroke-linecap="round"/>
<path d="M254.551 242.63C253.954 242.63 252.811 242.388 252.329 242.74C251.385 243.429 250.731 244.539 249.952 245.393C249.2 246.217 248.667 246.943 248.116 247.908C246.896 250.043 245.547 252.585 245.096 255.022C244.678 257.279 243.837 259.892 244.903 262.118C246.428 265.3 250.356 264.902 253.394 264.936C255.92 264.964 259.341 265.96 260.628 262.99C261.356 261.308 262.278 259.6 262.776 257.831C263.198 256.33 263.689 253.067 262.794 251.626C261.868 250.133 260.961 248.629 260.04 247.128C259.78 246.703 259.107 245.726 258.599 245.613C257.196 245.301 255.707 244.828 254.257 244.778C252.772 244.726 251.257 244.778 249.759 244.778" stroke="white" stroke-width="0.259137" stroke-linecap="round"/>
<path d="M165.538 330H161.262V329.028H162.841V323.222H161.262V322.25H165.538V323.222H163.958V329.028H165.538V330ZM167.74 330V324.146H168.782V325.166H168.857C169.163 324.441 169.824 324.033 170.699 324.033C171.972 324.033 172.66 324.795 172.66 326.203V330H171.58V326.471C171.58 325.467 171.177 324.994 170.312 324.994C169.416 324.994 168.814 325.623 168.814 326.568V330H167.74ZM176.548 330.097C175.2 330.097 174.341 329.135 174.341 327.604V326.541C174.341 325.01 175.2 324.049 176.548 324.049C177.392 324.049 178.009 324.419 178.246 325.075H178.348V321.863H179.454V330H178.375V329.076H178.272C177.993 329.737 177.392 330.097 176.548 330.097ZM176.903 329.141C177.805 329.141 178.375 328.507 178.375 327.502V326.627C178.375 325.617 177.805 324.983 176.903 324.983C176 324.983 175.431 325.623 175.431 326.627V327.502C175.431 328.507 176 329.141 176.903 329.141ZM183.799 330.113C182.22 330.113 181.216 329.103 181.216 327.519V326.632C181.216 325.042 182.22 324.038 183.799 324.038C185.378 324.038 186.383 325.042 186.383 326.632V327.519C186.383 329.103 185.378 330.113 183.799 330.113ZM183.799 324.951C182.865 324.951 182.279 325.623 182.279 326.708V327.443C182.279 328.528 182.865 329.2 183.799 329.2C184.734 329.2 185.319 328.528 185.319 327.443V326.708C185.319 325.623 184.734 324.951 183.799 324.951ZM188.139 330V324.146H189.181V325.166H189.256C189.562 324.441 190.223 324.033 191.099 324.033C192.372 324.033 193.059 324.795 193.059 326.203V330H191.979V326.471C191.979 325.467 191.577 324.994 190.712 324.994C189.815 324.994 189.213 325.623 189.213 326.568V330H188.139ZM198.887 328.453H199.918C199.762 329.436 198.795 330.113 197.533 330.113C195.89 330.113 194.95 329.146 194.95 327.481V326.589C194.95 325.048 195.954 324.033 197.474 324.033C199.005 324.033 199.934 325.042 199.934 326.708V327.341H196.008V327.604C196.008 328.593 196.604 329.227 197.528 329.227C198.221 329.227 198.742 328.931 198.887 328.453ZM197.463 324.914C196.556 324.914 196.008 325.537 196.008 326.584H198.876C198.876 325.542 198.35 324.914 197.463 324.914ZM201.997 325.762C201.997 324.715 202.872 324.027 204.215 324.027C205.493 324.027 206.331 324.64 206.428 325.655H205.396C205.3 325.177 204.843 324.881 204.199 324.881C203.511 324.881 203.065 325.204 203.065 325.687C203.065 326.106 203.35 326.337 204.032 326.487L204.881 326.675C206.036 326.933 206.557 327.427 206.557 328.287C206.557 329.398 205.638 330.107 204.209 330.107C202.829 330.107 201.938 329.49 201.841 328.458H202.926C203.044 328.958 203.527 329.243 204.236 329.243C204.972 329.243 205.445 328.915 205.445 328.405C205.445 327.975 205.182 327.755 204.473 327.594L203.597 327.395C202.528 327.153 201.997 326.616 201.997 325.762ZM211.095 322.776C210.617 322.776 210.263 322.443 210.263 321.981C210.263 321.514 210.617 321.181 211.095 321.181C211.579 321.181 211.928 321.514 211.928 321.981C211.928 322.443 211.579 322.776 211.095 322.776ZM213.566 330H208.651V329.13H210.623V325.016H208.694V324.146H211.675V329.13H213.566V330ZM217.148 330.097C216.031 330.097 215.29 329.393 215.29 328.335C215.29 327.293 216.042 326.681 217.406 326.6L218.942 326.52V326.004C218.942 325.333 218.523 324.957 217.771 324.957C217.148 324.957 216.703 325.225 216.563 325.687H215.51C215.618 324.72 216.536 324.065 217.793 324.065C219.206 324.065 220.011 324.774 220.011 326.004V330.005H218.985V329.151H218.883C218.604 329.753 217.976 330.097 217.148 330.097ZM217.481 329.2C218.319 329.2 218.942 328.646 218.942 327.9V327.282L217.551 327.352C216.772 327.395 216.364 327.717 216.364 328.287C216.364 328.851 216.794 329.2 217.481 329.2Z" fill="black"/>
</svg>
