<svg width="78" height="96" viewBox="0 0 78 96" fill="none" xmlns="http://www.w3.org/2000/svg">
<rect x="0.25" y="0.25" width="77.2296" height="95.5" fill="white" stroke="#F3F4F8" stroke-width="0.5"/>
<rect x="4.70166" y="4.2998" width="68.3131" height="68.3131" fill="#9496A1"/>
<path d="M31.9004 51.7598C29.6992 51.7598 28.5781 50.625 28.5781 48.2324V38.0742C28.5781 35.9551 29.4805 34.8203 31.2715 34.6152V31.4707C31.2715 26.5898 34.5527 23.7871 38.5586 23.7871C42.5645 23.7871 45.8594 26.5898 45.8594 31.4707V34.6152C47.6367 34.8203 48.5391 35.9551 48.5391 38.0742V48.2324C48.5391 50.625 47.418 51.7598 45.2305 51.7598H31.9004ZM34.5254 31.3066L34.5117 34.5742H42.6055L42.6191 31.3066C42.6191 28.5312 40.8008 26.918 38.5586 26.918C36.3164 26.918 34.5254 28.5312 34.5254 31.3066Z" fill="white"/>
<path d="M7.80394 82.5725V83.1328H5.19601V78.832H5.80999V82.5725H7.80394ZM10.0989 83.1954C9.22265 83.1954 8.6653 82.6351 8.6653 81.7558V81.264C8.6653 80.3818 9.22265 79.8245 10.0989 79.8245C10.9752 79.8245 11.5325 80.3818 11.5325 81.264V81.7558C11.5325 82.6351 10.9752 83.1954 10.0989 83.1954ZM10.0989 80.3312C9.58031 80.3312 9.25544 80.7037 9.25544 81.3058V81.7141C9.25544 82.3162 9.58031 82.6887 10.0989 82.6887C10.6175 82.6887 10.9424 82.3162 10.9424 81.7141V81.3058C10.9424 80.7037 10.6175 80.3312 10.0989 80.3312ZM15.2611 80.9302H14.671C14.6144 80.5547 14.3223 80.3312 13.9259 80.3312C13.3983 80.3312 13.1062 80.7007 13.1062 81.3684V81.6426C13.1062 82.3102 13.3983 82.6798 13.9259 82.6798C14.3253 82.6798 14.6114 82.4622 14.671 82.0956H15.2611C15.1807 82.7871 14.6889 83.1954 13.9318 83.1954C13.0287 83.1954 12.5072 82.653 12.5072 81.7052V81.3058C12.5072 80.358 13.0287 79.8185 13.9318 79.8185C14.6889 79.8185 15.1807 80.2268 15.2611 80.9302ZM17.1418 81.2998L18.4711 79.8841H19.1805L17.9376 81.1895L19.2669 83.1328H18.5635L17.5054 81.58L17.0971 81.9794V83.1328H16.501V78.6174H17.0971V81.2998H17.1418ZM22.2444 82.2744H22.8167C22.7302 82.8199 22.1938 83.1954 21.4933 83.1954C20.5813 83.1954 20.0597 82.6589 20.0597 81.735V81.2402C20.0597 80.3848 20.6171 79.8215 21.4606 79.8215C22.31 79.8215 22.8256 80.3818 22.8256 81.3058V81.6575H20.6469V81.8035C20.6469 82.3519 20.9777 82.7036 21.4904 82.7036C21.8748 82.7036 22.1639 82.5397 22.2444 82.2744ZM21.4546 80.3103C20.9509 80.3103 20.6469 80.656 20.6469 81.2372H22.2385C22.2385 80.659 21.9464 80.3103 21.4546 80.3103ZM24.9418 83.1865C24.1937 83.1865 23.7168 82.653 23.7168 81.8035V81.2134C23.7168 80.3639 24.1937 79.8304 24.9418 79.8304C25.4097 79.8304 25.7525 80.0361 25.8836 80.3997H25.9402V78.6174H26.5542V83.1328H25.9551V82.6202H25.8985C25.7435 82.9868 25.4097 83.1865 24.9418 83.1865ZM25.1385 82.6559C25.6392 82.6559 25.9551 82.3042 25.9551 81.7469V81.2611C25.9551 80.7007 25.6392 80.349 25.1385 80.349C24.6378 80.349 24.3218 80.7037 24.3218 81.2611V81.7469C24.3218 82.3042 24.6378 82.6559 25.1385 82.6559Z" fill="black"/>
</svg>
