<svg width="358" height="358" viewBox="0 0 358 358" fill="none" xmlns="http://www.w3.org/2000/svg">
<rect x="122.6" y="122.6" width="235.4" height="235.4" fill="#FFE8C6"/>
<circle cx="209.34" cy="240.914" r="62.3403" fill="#53B1C5"/>
<circle cx="282.96" cy="227.1" r="50.0996" fill="#D05B53"/>
<path d="M196.116 194.597C190.366 194.597 184.371 194.069 178.647 194.597C172.237 195.189 168.491 209.36 166.762 214.061C162.7 225.101 160.221 235.391 160.221 247.164C160.221 254.952 163.93 260.172 168.876 266.029C179.045 278.072 190.717 283.688 206.406 284.894C212.562 285.368 219.18 285.567 224.833 282.741C235.733 277.291 241.778 267.467 247.806 257.295C253.262 248.088 257.99 238.27 259.253 227.541C259.727 223.507 261.175 217.901 259.572 213.981C257.734 209.488 250.702 206.111 246.729 203.93C241.544 201.083 236.064 199.172 230.417 197.469C222.585 195.107 215.598 191.726 207.244 191.726C200.399 191.726 193.578 192.443 186.784 192.443" stroke="#FFE9CA" stroke-width="0.874338" stroke-linecap="round"/>
<path d="M285.137 191.008C275.947 191.008 264.588 188.862 258.415 197.23C250.853 207.48 239.909 219.718 239.909 233.005C239.909 237.963 239.151 243.394 240.986 248.082C243.056 253.373 247.162 257.41 251.754 260.605C261.326 267.264 274.512 268.542 285.855 268.542C300.021 268.542 309.729 258.992 318.161 248.281C322.793 242.398 324.971 232.706 325.899 225.467C326.781 218.584 326.308 213.663 322.07 208.238C317.989 203.015 310.123 193.912 303.005 193.122C295.873 192.329 288.741 192.444 281.548 192.444" stroke="#FFE9CA" stroke-width="0.874338" stroke-linecap="round"/>
<rect y="246.193" width="111.038" height="111.038" fill="#FFE8C6"/>
<rect x="12" y="285.108" width="86.3005" height="37.7537" transform="rotate(-2.72865 12 285.108)" fill="#3290AC"/>
<path d="M16.4174 285.593C16.4174 289.734 16.7131 293.885 16.7131 297.998C16.7131 301.39 17.6003 304.75 17.6003 308.135C17.6003 310.139 18.1918 312.014 18.1918 314.001C18.1918 315.674 18.4876 320.685 18.4876 319.012" stroke="#FFE9CA" stroke-width="0.396638" stroke-linecap="round"/>
<path d="M14.9388 286.48C23.8408 286.48 32.7375 286.776 41.6214 286.776C46.066 286.776 50.673 287.131 55.0942 286.71C58.5367 286.383 62.0527 285.889 65.5109 285.889C71.2582 285.889 77.0019 285.425 82.7297 285.297C86.9245 285.204 91.162 284.41 95.3809 284.41C95.5483 284.41 95.1635 284.428 95.0688 284.854C94.9637 285.326 94.5483 285.693 94.4937 286.185C94.3522 287.458 94.198 288.677 94.198 290.029C94.198 291.807 93.8981 293.912 94.2637 295.648C94.5562 297.038 94.7894 298.744 94.7894 300.15C94.7894 304.704 95.9724 308.919 95.9724 313.393" stroke="#FFE9CA" stroke-width="0.396638" stroke-linecap="round"/>
<path d="M19.3751 319.604C15.5961 319.604 26.9329 319.604 30.7119 319.604C35.4852 319.604 40.6739 320.213 45.4005 319.538C49.106 319.009 52.9168 319.202 56.6387 318.651C62.4943 317.783 68.5348 317.404 74.2847 315.825C76.0758 315.333 77.8044 315.527 79.6409 315.463C81.719 315.392 83.8135 314.872 85.9172 314.872C90.2566 314.872 94.5944 314.28 98.9299 314.28" stroke="#FFE9CA" stroke-width="0.396638" stroke-linecap="round"/>
<rect x="84.3632" y="287.291" width="9.36066" height="24.5122" fill="#45B289"/>
<path d="M85.6212 288.55C86.5706 288.55 87.3651 288.846 88.2829 288.846C88.6898 288.846 90.8879 289.142 89.7616 289.142" stroke="#FFE9CA" stroke-width="0.396638" stroke-linecap="round"/>
<path d="M85.6212 291.803C86.4801 291.803 87.2604 292.068 88.0529 292.099C88.6158 292.121 90.4177 292.438 89.4659 291.803" stroke="#FFE9CA" stroke-width="0.396638" stroke-linecap="round"/>
<path d="M85.3254 295.353C86.1969 295.353 89.4658 295.276 89.4658 296.24" stroke="#FFE9CA" stroke-width="0.396638" stroke-linecap="round"/>
<path d="M86.2126 299.789C87.361 299.789 88.2094 299.9 89.1701 300.38" stroke="#FFE9CA" stroke-width="0.396638" stroke-linecap="round"/>
<rect x="19.4319" y="291.026" width="62.5846" height="25.3848" transform="rotate(-1.31715 19.4319 291.026)" fill="#FF8168"/>
<path d="M86.5084 304.225C87.4014 304.225 90.5108 303.949 90.9446 304.816" stroke="#FFE9CA" stroke-width="0.396638" stroke-linecap="round"/>
<path d="M87.1001 307.774C88.449 307.774 89.741 308.365 90.9448 308.365" stroke="#FFE9CA" stroke-width="0.396638" stroke-linecap="round"/>
<path d="M22.3321 292.691C22.3321 298.069 22.3321 303.447 22.3321 308.825C22.3321 310.299 22.3321 311.772 22.3321 313.245C22.3321 314.684 23.1029 314.28 24.468 314.28C28.1965 314.28 31.8998 314.576 35.6241 314.576C38.8651 314.576 42.0273 314.166 45.17 313.393C50.8338 311.999 56.91 311.683 62.6845 310.961C67.6893 310.336 72.6588 309.825 77.636 309.548C78.2782 309.513 78.819 309.766 78.819 308.957C78.819 308.027 79.1147 307.189 79.1147 306.279C79.1147 303.867 79.2644 301.425 78.8354 299.066C78.5491 297.491 78.2378 295.927 77.9482 294.334C77.8487 293.787 78.0156 291.548 77.3402 291.508C76.291 291.446 75.2196 291.508 74.1692 291.508C62.1753 291.508 50.2939 292.691 38.3022 292.691C34.6441 292.691 31.0296 293.282 27.3597 293.282C25.3881 293.282 23.4164 293.282 21.4448 293.282" stroke="#FFE9CA" stroke-width="0.396638" stroke-linecap="round"/>
<rect y="123.096" width="111.038" height="111.038" fill="#FFE8C6"/>
<circle cx="32" cy="179" r="22" fill="#45B289"/>
<circle cx="84.0468" cy="174.718" r="16.7584" fill="#FFCF7D"/>
<rect x="45.2144" y="168.443" width="28.4966" height="11" fill="#FF8168"/>
<path d="M24.2729 166.218C23.6496 166.218 22.9816 166.156 22.3616 166.233C21.0574 166.396 19.3266 168.91 18.4931 169.857C16.9651 171.592 17.4853 172.15 16.9946 174.138C16.5473 175.951 15.1903 177.202 15.1903 179.154C15.1903 181.13 15.3144 182.489 16.1689 184.276C17.9285 187.955 21.475 190.67 25.3738 191.753C27.5978 192.371 29.9045 192.365 32.1934 192.365C35.5899 192.365 38.0811 191.261 40.802 189.184C43.9419 186.788 46.7406 183.63 48.6155 180.148C49.1559 179.144 48.6764 177.379 48.3403 176.401C47.3107 173.406 43.9923 170.166 41.4901 168.359C37.9554 165.806 33.456 165.461 29.2424 165.683C27.9297 165.752 26.2499 165.671 24.961 165.958C24.0786 166.154 23.3249 167.044 22.3463 167.044" stroke="#FFE9CA" stroke-width="0.369127" stroke-linecap="round"/>
<path d="M81.5209 164.016C78.3774 164.016 73.1889 164.169 71.8878 167.747C71.3586 169.202 71.1375 170.617 70.7257 172.059C70.2832 173.607 70.0876 176.569 70.6645 178.053C72.1074 181.763 75.1747 185.871 79.2579 186.799C83.4857 187.76 89.5009 188.985 93.0194 185.545C94.5325 184.065 96.253 182.472 96.9949 180.468C97.6908 178.59 97.7595 177.37 97.7595 175.316C97.7595 172.284 98.0195 169.536 95.6799 167.196C93.9421 165.458 90.9526 163.882 88.4016 163.741C86.9431 163.66 85.4586 163.741 83.9979 163.741C82.9248 163.741 78.3469 164.273 77.9429 163.465" stroke="#FFE9CA" stroke-width="0.369127" stroke-linecap="round"/>
<path d="M49.0435 178.328C52.3875 176.536 55.0188 173.613 58.3401 171.768C59.1421 171.323 59.6585 171.172 60.542 171.172C62.0303 171.172 63.5185 171.172 65.0068 171.172C66.6081 171.172 69.961 171.856 69.961 173.924" stroke="#FFE9CA" stroke-width="0.369127" stroke-linecap="round"/>
<rect width="111.038" height="111.038" fill="#FFE8C6"/>
<rect x="70.7009" y="34.1567" width="20.5614" height="49.4496" transform="rotate(14.3181 70.7009 34.1567)" fill="#515BA2"/>
<rect x="23.0436" y="52.6719" width="30.7133" height="66.5057" transform="rotate(-97.0756 23.0436 52.6719)" fill="#EDB055"/>
<rect x="20.2181" y="45.3989" width="22.4307" height="51.4892" transform="rotate(-7.34867 20.2181 45.3989)" fill="#FFA690"/>
<path d="M24.0057 49.6758C22.7879 55.8757 24.5832 62.3607 26.4208 68.3015C27.6106 72.148 27.8885 76.2055 29.0755 80.0429C29.9034 82.7193 29.6558 85.8219 30.581 88.429C31.0685 89.8029 30.894 92.0392 31.811 93.2606C32.8697 94.6706 38.0574 92.6319 39.6328 92.3861C41.2708 92.1304 43.1187 91.7396 44.7518 91.6993C47.6161 91.6285 46.5371 87.2767 45.7916 85.3431C43.809 80.2005 42.9141 74.4309 41.716 69.034C40.7617 64.7351 38.4165 60.094 38.1681 55.703C38.0312 53.282 36.6721 50.8596 35.9041 48.582C35.4736 47.305 35.4704 45.8827 35.0248 44.5611C34.7488 43.7424 33.3233 45.0752 33.0016 45.1837C31.7904 45.5921 30.6627 46.5321 29.3586 46.9718C27.8071 47.4949 25.6115 50.0152 25.7634 47.1001" stroke="#FFE9CA" stroke-width="0.243261" stroke-linecap="round"/>
<path d="M72.4454 41.4524C75.4235 40.6929 77.7578 41.8736 80.5376 42.3466C82.5258 42.6849 87.8447 42.8068 85.2784 46.2082C84.3982 47.3748 84.6533 49.7375 84.2093 51.1289C83.8628 52.2145 83.3941 53.2096 83.0379 54.2681C81.8097 57.918 80.7992 61.6497 79.454 65.2529C78.4683 67.8933 78.1733 70.8801 77.7007 73.6581C77.4859 74.9203 76.9184 76.6187 77.0861 77.8761C77.2307 78.9599 77.0769 80.6565 76.8946 81.7279C76.7678 82.4732 77.002 85.6207 75.7816 84.3592C74.5396 83.0754 72.5214 82.7959 70.9484 81.9766C69.7429 81.3487 67.8036 80.3873 66.4711 80.1606C65.8518 80.0552 62.3674 79.2644 62.1619 78.912C61.7349 78.1798 64.2684 72.1142 64.3139 71.9779C66.1702 66.4228 67.8005 60.7895 69.8239 55.2905C70.6203 53.1263 71.0051 50.7104 71.6397 48.4187C72.3461 45.8675 73.4459 43.0351 73.4333 40.3554" stroke="#FFE9CA" stroke-width="0.243261" stroke-linecap="round"/>
<path d="M23.9031 50.7335C23.9031 48.264 23.2482 44.7345 23.9259 42.3625C25.3673 37.3175 30.9988 32.6641 34.6625 29.3057C38.1358 26.1218 41.0364 23.5517 45.4674 21.8901C48.153 20.883 50.9842 19.2704 53.8838 19.206C57.0708 19.1352 60.1787 18.3871 63.3921 18.3871C65.9979 18.3871 68.6114 18.3379 71.2171 18.3871C77.9539 18.5142 83.861 24.8649 85.9344 30.6705C87.6373 35.4386 86.9581 41.1698 86.9581 46.2295" stroke="#FFE9CA" stroke-width="0.243261" stroke-linecap="round"/>
<path d="M71.8084 40.9065C71.8084 38.7085 66.707 36.1304 64.8478 35.1743C59.3459 32.3447 54.4511 33.132 48.8793 35.9932C46.7864 37.0679 44.4803 39.1998 42.5784 40.6791C41.2332 41.7253 39.976 42.7871 38.6431 43.8637C37.9122 44.454 36.0887 45.4454 35.7997 46.4568C35.6244 47.0704 35.3676 47.6254 35.3676 46.6388" stroke="#FFE9CA" stroke-width="0.243261" stroke-linecap="round"/>
<rect x="123.097" width="111.038" height="111.038" fill="#FFE8C6"/>
<rect x="141.381" y="41.5503" width="30.6692" height="13.788" transform="rotate(37.4338 141.381 41.5503)" fill="#EDB055"/>
<rect x="188.149" y="55.7705" width="32.7781" height="16.8684" transform="rotate(-28.76 188.149 55.7705)" fill="#53B1C5"/>
<rect x="163.097" y="46.502" width="11.6479" height="17.9387" fill="#FF8168"/>
<rect x="178.677" y="48.3203" width="11.6479" height="17.9387" fill="#39A784"/>
<path d="M155.555 65.5546C154.728 65.4513 153.509 63.7043 152.66 63.2797C150.88 62.3897 149.266 60.9847 147.696 59.764C144.563 57.327 141.688 54.5643 138.597 52.1352C137.317 51.1295 137.157 50.5689 138.804 49.8373C140.302 49.1712 141.292 46.9174 142.94 46.5514C145.581 45.9644 149.743 49.0628 152.039 50.8484C155.661 53.6656 159.176 56.5436 162.586 59.764C164.562 61.6296 160.478 63.1374 158.864 63.9921C157.909 64.4974 157.253 65.1341 156.382 65.6465C155.535 66.1448 155.227 67.5796 154.314 68.0363" stroke="#FFE9CA" stroke-width="0.245736" stroke-linecap="round"/>
<path d="M168.377 61.0046C168.377 59.3944 166.882 58.7121 166.723 57.2821C166.582 56.0174 165.634 54.0479 165.068 52.9162C164.12 51.0184 163.896 50.6643 166.309 50.6643C168.585 50.6643 170.366 49.6495 172.513 49.4234C172.823 49.3909 174.254 48.6916 173.524 49.6302C172.909 50.421 172.832 51.1416 172.605 52.1349C172.182 53.9859 172.513 56.206 172.513 58.1093C172.513 59.0192 172.062 61.474 172.605 62.1535C173.252 62.9619 170.743 62.8404 170.445 62.2454" stroke="#FFE9CA" stroke-width="0.245736" stroke-linecap="round"/>
<path d="M181.2 62.6592C181.2 60.6729 181.921 57.0433 181.108 55.2142C180.589 54.0463 180.372 51.945 180.372 50.6644C180.372 50.0224 179.643 49.4236 180.579 49.4236C181.644 49.4236 182.708 49.4236 183.773 49.4236C184.192 49.4236 189.221 49.2967 188.966 49.8372C187.164 53.6674 187.817 58.3497 187.817 62.6592C187.817 65.2746 186.674 63.6269 184.922 64.4056C183.976 64.826 180.713 66.235 180.372 65.5545" stroke="#FFE9CA" stroke-width="0.245736" stroke-linecap="round"/>
<path d="M193.194 62.2455C194.131 61.309 195.268 60.4264 196.365 59.6948C199.136 57.8478 201.195 54.9346 203.81 52.8702C206.292 50.9112 208.354 48.3555 210.819 46.4592C211.832 45.6798 212.503 44.5076 213.461 43.6558C213.86 43.3014 214.702 42.1112 214.702 42.6448C214.702 45.3551 215.08 46.9449 216.54 49.2396C217.483 50.7209 220.033 53.5396 220.033 55.4208C220.033 56.1853 217.704 56.1746 217.092 56.363C214.913 57.0335 212.893 57.965 210.75 58.9366C206.904 60.6802 202.114 62.5417 199.077 65.4625C197.079 67.3833 196.562 68.4226 195.354 65.5544C194.586 63.7304 192.756 63.4374 191.953 61.8319" stroke="#FFE9CA" stroke-width="0.245736" stroke-linecap="round"/>
<rect x="246.193" width="111.038" height="111.038" fill="#FFE8C6"/>
<path d="M284.638 40.6855H326.192V74.5816C326.192 86.0562 316.89 95.3582 305.415 95.3582C293.94 95.3582 284.638 86.0562 284.638 74.5816V40.6855Z" fill="#D05B53"/>
<rect x="275" y="42.5527" width="37.5509" height="38.4705" transform="rotate(-45 275 42.5527)" fill="#45B289"/>
<path d="M281.251 40.1429C287.148 34.2454 291.996 27.1578 298.347 21.7845C299.758 20.5901 302.969 23.472 304.221 24.4924C306.41 26.2756 308.569 29.0611 311.198 30.2293C313.127 31.0869 314.676 32.6751 316.154 34.1534C317.058 35.0573 317.963 36.6196 319.069 37.2514C319.501 37.4983 321.887 39.4397 321.524 39.7298C319.422 41.4114 317.848 45.226 316.384 47.3485C315.529 48.588 314.813 50.0343 313.883 51.2038C313.014 52.2958 311.167 53.5155 310.991 55.0131C310.902 55.7729 309.688 56.8115 309.339 57.5833C308.812 58.7478 307.75 60.2702 306.86 61.2091C306.014 62.1029 305.24 64.9972 303.969 64.9266C303.059 64.8761 302.36 62.7159 301.812 62.0352C300.669 60.6159 299.089 59.2858 297.681 58.1341C295.549 56.3897 293.462 53.4342 291.164 52.0299C289.648 51.1037 287.875 49.4297 286.62 48.1746C284.512 46.0662 282.718 43.1483 280.011 41.7951" stroke="#FFE9CA" stroke-width="0.267741" stroke-linecap="round"/>
<path d="M314.709 50.47C314.709 54.3281 314.296 58.1568 314.296 61.944C314.296 62.5949 313.937 65.2863 315.122 64.1011C315.798 63.4246 315.923 62.1388 316.568 61.6227C317.913 60.5464 317.187 54.8189 317.187 53.1779C317.187 51.395 317.278 47.6241 315.535 46.7524" stroke="#FFE9CA" stroke-width="0.267741" stroke-linecap="round"/>
<path d="M287.186 51.5473C287.186 56.4961 287.186 61.4449 287.186 66.3937C287.186 69.26 287.752 71.7359 288.063 74.5305C288.331 76.9431 288.448 79.7758 289.665 81.9662C292.237 86.597 293.829 90.1035 299.404 91.4549C302.824 92.2841 307.812 92.9341 311.071 91.3047C314.507 89.5864 316.324 84.8376 318.657 82.1164C319.712 80.8852 322.337 79.2996 322.337 77.4347C322.337 74.5558 323.689 71.8368 323.689 68.9474C323.689 65.4675 323.238 61.8772 323.238 58.5324C323.238 55.7293 320.683 53.1647 320.534 50.646C320.376 47.9459 318.731 45.6878 316.929 43.8862" stroke="#FFE9CA" stroke-width="0.267741" stroke-linecap="round"/>
</svg>
